<svg width="460" height="325" viewBox="0 0 460 325" fill="none" xmlns="http://www.w3.org/2000/svg">
<path d="M102.318 275.841V272.091H128.5V275.841H117.523V307H113.295V275.841H102.318ZM135.024 307V272.091H146.82C149.547 272.091 151.786 272.557 153.536 273.489C155.286 274.409 156.581 275.676 157.422 277.29C158.263 278.903 158.683 280.739 158.683 282.795C158.683 284.852 158.263 286.676 157.422 288.267C156.581 289.858 155.291 291.108 153.553 292.017C151.814 292.915 149.592 293.364 146.888 293.364H137.342V289.545H146.751C148.615 289.545 150.115 289.273 151.251 288.727C152.399 288.182 153.229 287.409 153.74 286.409C154.263 285.398 154.524 284.193 154.524 282.795C154.524 281.398 154.263 280.176 153.74 279.131C153.217 278.085 152.382 277.278 151.234 276.71C150.087 276.131 148.57 275.841 146.683 275.841H139.251V307H135.024ZM151.456 291.318L160.047 307H155.138L146.683 291.318H151.456ZM167.159 307H162.727L175.545 272.091H179.909L192.727 307H188.295L177.864 277.614H177.591L167.159 307ZM168.795 293.364H186.659V297.114H168.795V293.364ZM208.938 307H198.165V272.091H209.415C212.801 272.091 215.699 272.79 218.108 274.188C220.517 275.574 222.364 277.568 223.648 280.17C224.932 282.761 225.574 285.864 225.574 289.477C225.574 293.114 224.926 296.244 223.631 298.869C222.335 301.483 220.449 303.494 217.972 304.903C215.494 306.301 212.483 307 208.938 307ZM202.392 303.25H208.665C211.551 303.25 213.943 302.693 215.841 301.58C217.739 300.466 219.153 298.881 220.085 296.824C221.017 294.767 221.483 292.318 221.483 289.477C221.483 286.659 221.023 284.233 220.102 282.199C219.182 280.153 217.807 278.585 215.977 277.494C214.148 276.392 211.869 275.841 209.142 275.841H202.392V303.25ZM232.665 307V272.091H253.733V275.841H236.892V287.636H252.642V291.386H236.892V303.25H254.006V307H232.665ZM261.352 307V272.091H273.148C275.875 272.091 278.114 272.557 279.864 273.489C281.614 274.409 282.909 275.676 283.75 277.29C284.591 278.903 285.011 280.739 285.011 282.795C285.011 284.852 284.591 286.676 283.75 288.267C282.909 289.858 281.619 291.108 279.881 292.017C278.142 292.915 275.92 293.364 273.216 293.364H263.67V289.545H273.08C274.943 289.545 276.443 289.273 277.58 288.727C278.727 288.182 279.557 287.409 280.068 286.409C280.591 285.398 280.852 284.193 280.852 282.795C280.852 281.398 280.591 280.176 280.068 279.131C279.545 278.085 278.71 277.278 277.562 276.71C276.415 276.131 274.898 275.841 273.011 275.841H265.58V307H261.352ZM277.784 291.318L286.375 307H281.466L273.011 291.318H277.784ZM311.146 280.818C310.942 279.091 310.112 277.75 308.658 276.795C307.203 275.841 305.419 275.364 303.305 275.364C301.76 275.364 300.408 275.614 299.249 276.114C298.101 276.614 297.203 277.301 296.555 278.176C295.919 279.051 295.601 280.045 295.601 281.159C295.601 282.091 295.822 282.892 296.266 283.562C296.72 284.222 297.3 284.773 298.004 285.216C298.709 285.648 299.447 286.006 300.22 286.29C300.993 286.562 301.703 286.784 302.351 286.955L305.896 287.909C306.805 288.148 307.817 288.477 308.93 288.898C310.055 289.318 311.129 289.892 312.152 290.619C313.186 291.335 314.038 292.256 314.709 293.381C315.379 294.506 315.714 295.886 315.714 297.523C315.714 299.409 315.22 301.114 314.232 302.636C313.254 304.159 311.822 305.369 309.936 306.267C308.061 307.165 305.783 307.614 303.101 307.614C300.601 307.614 298.436 307.21 296.607 306.403C294.788 305.597 293.357 304.472 292.311 303.028C291.277 301.585 290.692 299.909 290.555 298H294.919C295.033 299.318 295.476 300.409 296.249 301.273C297.033 302.125 298.021 302.761 299.214 303.182C300.419 303.591 301.714 303.795 303.101 303.795C304.714 303.795 306.163 303.534 307.447 303.011C308.732 302.477 309.749 301.739 310.499 300.795C311.249 299.841 311.624 298.727 311.624 297.455C311.624 296.295 311.3 295.352 310.652 294.625C310.004 293.898 309.152 293.307 308.095 292.852C307.038 292.398 305.896 292 304.669 291.659L300.374 290.432C297.646 289.648 295.487 288.528 293.896 287.074C292.305 285.619 291.51 283.716 291.51 281.364C291.51 279.409 292.038 277.705 293.095 276.25C294.163 274.784 295.595 273.648 297.391 272.841C299.197 272.023 301.214 271.614 303.442 271.614C305.692 271.614 307.692 272.017 309.442 272.824C311.192 273.619 312.578 274.71 313.601 276.097C314.635 277.483 315.18 279.057 315.237 280.818H311.146Z" fill="white"/>
<path d="M166.659 46H162.227L175.045 11.0909H179.409L192.227 46H187.795L177.364 16.6136H177.091L166.659 46ZM168.295 32.3636H186.159V36.1136H168.295V32.3636ZM201.892 11.0909V46H197.665V11.0909H201.892ZM210.368 46V11.0909H222.163C224.891 11.0909 227.129 11.5568 228.879 12.4886C230.629 13.4091 231.925 14.6761 232.766 16.2898C233.607 17.9034 234.027 19.7386 234.027 21.7955C234.027 23.8523 233.607 25.6761 232.766 27.267C231.925 28.858 230.635 30.108 228.896 31.017C227.158 31.9148 224.936 32.3636 222.232 32.3636H212.686V28.5455H222.095C223.959 28.5455 225.459 28.2727 226.595 27.7273C227.743 27.1818 228.572 26.4091 229.084 25.4091C229.607 24.3977 229.868 23.1932 229.868 21.7955C229.868 20.3977 229.607 19.1761 229.084 18.1307C228.561 17.0852 227.726 16.2784 226.578 15.7102C225.43 15.1307 223.913 14.8409 222.027 14.8409H214.595V46H210.368ZM226.8 30.3182L235.391 46H230.482L222.027 30.3182H226.8Z" fill="white"/>
<path d="M67.3457 71.6225C67.3457 64.6407 75.0354 59 84.5533 59H291.044C300.562 59 308.252 64.6407 308.252 71.6225C308.252 78.6044 300.562 84.2451 291.044 84.2451H205.006V109.49H222.214C269.75 109.49 308.252 137.733 308.252 172.603V197.848C308.252 204.83 300.562 210.47 291.044 210.47H205.006H161.987C156.556 210.47 151.448 208.616 148.221 205.421L101.761 159.98L23.8966 137.141C18.7881 135.642 14.9164 132.408 13.5721 128.463L1.20418 92.0947C-0.193938 88.1107 3.94663 84.2451 9.53909 84.2451H24.3268C29.758 84.2451 34.8665 86.099 38.0929 89.2941L58.7419 109.49H170.591V84.2451H84.5533C75.0354 84.2451 67.3457 78.6044 67.3457 71.6225ZM205.006 185.225H273.836V172.603C273.836 151.697 250.714 134.735 222.214 134.735H205.006V185.225ZM337.612 226.801C344.334 231.732 344.334 239.739 337.612 244.67L335.515 246.208C322.609 255.675 305.079 261 286.85 261H136.176C126.658 261 118.968 255.359 118.968 248.377C118.968 241.396 126.658 235.755 136.176 235.755H286.85C295.991 235.755 304.756 233.112 311.209 228.379L313.306 226.84C320.028 221.91 330.944 221.91 337.666 226.84L337.612 226.801Z" fill="white"/>
</svg>
